<?xml version="1.0" encoding="utf-8"?>
<!-- Generator: Adobe Illustrator 20.1.0, SVG Export Plug-In . SVG Version: 6.00 Build 0)  -->
<svg version="1.1" id="Calque_1" xmlns="http://www.w3.org/2000/svg" xmlns:xlink="http://www.w3.org/1999/xlink" x="0px" y="0px"
	 viewBox="0 0 32 32" style="enable-background:new 0 0 32 32;" xml:space="preserve">
<style type="text/css">
	.st0{fill:#CC3732;}
	.st1{fill:#55ACEE;}
	.st2{fill:#FFFFFF;}
	.st3{fill:#3B5998;}
	.st4{fill:#0077B5;}
</style>
<g id="Flat_copy_1_">
	<g>
		<path class="st3" d="M16,0C7.2,0,0,7.2,0,16c0,8.8,7.2,16,16,16s16-7.2,16-16C32,7.2,24.8,0,16,0z"/>
	</g>
	<path class="st2" d="M13.7,24.9h3.7V16h2.5l0.3-3.1h-2.8l0-1.5c0-0.8,0.1-1.2,1.2-1.2h1.5V7.1h-2.5c-2.9,0-4,1.5-4,4v1.8h-1.8V16
		h1.8C13.7,16,13.7,24.9,13.7,24.9z"/>
</g>
</svg>
